<mxfile host="app.diagrams.net" modified="2024-05-28T15:42:48.758Z" agent="Mozilla/5.0 (Windows NT 10.0; Win64; x64; rv:126.0) Gecko/20100101 Firefox/126.0" etag="BJJN3KifMxW9SRZE-OBG" version="24.4.8" type="device">
  <diagram name="Page-1" id="9361dd3d-8414-5efd-6122-117bd74ce7a7">
    <mxGraphModel dx="1687" dy="967" grid="1" gridSize="10" guides="1" tooltips="1" connect="1" arrows="1" fold="1" page="0" pageScale="1.5" pageWidth="826" pageHeight="1169" background="none" math="0" shadow="0">
      <root>
        <mxCell id="0" />
        <mxCell id="1" parent="0" />
        <mxCell id="2R9k3WFj2CRMJ_DRTDR5-63" value="" style="edgeStyle=orthogonalEdgeStyle;rounded=0;orthogonalLoop=1;jettySize=auto;html=1;dashed=1;endArrow=none;endFill=0;" edge="1" parent="1" source="2R9k3WFj2CRMJ_DRTDR5-59" target="2R9k3WFj2CRMJ_DRTDR5-51">
          <mxGeometry relative="1" as="geometry" />
        </mxCell>
        <mxCell id="YI2W7DXEhTe_7VjpbuNO-96" value="" style="edgeStyle=orthogonalEdgeStyle;rounded=0;orthogonalLoop=1;jettySize=auto;html=1;endArrow=none;endFill=0;dashed=1;fontFamily=Helvetica;fontSize=14;exitX=0.5;exitY=1;exitDx=0;exitDy=0;" parent="1" edge="1" source="2R9k3WFj2CRMJ_DRTDR5-35">
          <mxGeometry relative="1" as="geometry">
            <mxPoint x="320" y="170" as="sourcePoint" />
            <mxPoint x="320" y="600" as="targetPoint" />
          </mxGeometry>
        </mxCell>
        <mxCell id="YI2W7DXEhTe_7VjpbuNO-97" value="" style="endArrow=open;html=1;rounded=0;endFill=0;fontFamily=Helvetica;fontSize=14;entryX=-0.221;entryY=0.157;entryDx=0;entryDy=0;entryPerimeter=0;" parent="1" target="2R9k3WFj2CRMJ_DRTDR5-59" edge="1">
          <mxGeometry width="50" height="50" relative="1" as="geometry">
            <mxPoint x="320" y="180" as="sourcePoint" />
            <mxPoint x="440" y="190" as="targetPoint" />
          </mxGeometry>
        </mxCell>
        <mxCell id="YI2W7DXEhTe_7VjpbuNO-98" value="IRQ" style="edgeLabel;html=1;align=center;verticalAlign=middle;resizable=0;points=[];fontFamily=Helvetica;fontSize=14;" parent="YI2W7DXEhTe_7VjpbuNO-97" vertex="1" connectable="0">
          <mxGeometry x="-0.195" y="-2" relative="1" as="geometry">
            <mxPoint x="18" y="-12" as="offset" />
          </mxGeometry>
        </mxCell>
        <mxCell id="2R9k3WFj2CRMJ_DRTDR5-35" value="CAN Controller&#xa;Timer" style="shadow=1;fontFamily=Helvetica;fontSize=14;fontStyle=1" vertex="1" parent="1">
          <mxGeometry x="263" y="80" width="115" height="50" as="geometry" />
        </mxCell>
        <mxCell id="2R9k3WFj2CRMJ_DRTDR5-36" value="CAN API" style="shadow=1;fontFamily=Helvetica;fontSize=14;fontStyle=1" vertex="1" parent="1">
          <mxGeometry x="646" y="78" width="105" height="50" as="geometry" />
        </mxCell>
        <mxCell id="2R9k3WFj2CRMJ_DRTDR5-37" value="" style="edgeStyle=elbowEdgeStyle;elbow=horizontal;endArrow=none;dashed=1;fontFamily=Helvetica;fontSize=14;" edge="1" parent="1">
          <mxGeometry x="230.00000000000003" y="310" width="100" height="100" as="geometry">
            <mxPoint x="699.1052631578947" y="382" as="sourcePoint" />
            <mxPoint x="699" y="600" as="targetPoint" />
            <Array as="points" />
          </mxGeometry>
        </mxCell>
        <mxCell id="2R9k3WFj2CRMJ_DRTDR5-38" value="CAN Controller" style="shadow=1;fontFamily=Helvetica;fontSize=14;fontStyle=1" vertex="1" parent="1">
          <mxGeometry x="430" y="78" width="105" height="50" as="geometry" />
        </mxCell>
        <mxCell id="2R9k3WFj2CRMJ_DRTDR5-39" value="" style="edgeStyle=elbowEdgeStyle;elbow=horizontal;endArrow=none;dashed=1;fontFamily=Helvetica;fontSize=14;exitX=0.5;exitY=1;exitDx=0;exitDy=0;" edge="1" parent="1" source="2R9k3WFj2CRMJ_DRTDR5-51">
          <mxGeometry x="230.00000000000003" y="310" width="100" height="100" as="geometry">
            <mxPoint x="483" y="320" as="sourcePoint" />
            <mxPoint x="483" y="600" as="targetPoint" />
            <Array as="points" />
          </mxGeometry>
        </mxCell>
        <mxCell id="2R9k3WFj2CRMJ_DRTDR5-51" value="" style="rounded=0;whiteSpace=wrap;html=1;fontFamily=Helvetica;fontSize=14;" vertex="1" parent="1">
          <mxGeometry x="477.5" y="254" width="10" height="316" as="geometry" />
        </mxCell>
        <mxCell id="2R9k3WFj2CRMJ_DRTDR5-52" value="" style="endArrow=classic;html=1;rounded=0;entryX=-0.072;entryY=0.18;entryDx=0;entryDy=0;entryPerimeter=0;fontFamily=Helvetica;fontSize=14;exitX=1.084;exitY=0.238;exitDx=0;exitDy=0;exitPerimeter=0;" edge="1" parent="1" target="2R9k3WFj2CRMJ_DRTDR5-56" source="2R9k3WFj2CRMJ_DRTDR5-79">
          <mxGeometry width="50" height="50" relative="1" as="geometry">
            <mxPoint x="550" y="365" as="sourcePoint" />
            <mxPoint x="327.9399999999998" y="366.20000000000005" as="targetPoint" />
            <Array as="points" />
          </mxGeometry>
        </mxCell>
        <mxCell id="2R9k3WFj2CRMJ_DRTDR5-53" value="can_send(&amp;amp;frame)" style="edgeLabel;html=1;align=center;verticalAlign=middle;resizable=0;points=[];fontFamily=Helvetica;fontSize=14;" vertex="1" connectable="0" parent="2R9k3WFj2CRMJ_DRTDR5-52">
          <mxGeometry x="0.2875" relative="1" as="geometry">
            <mxPoint x="-27" y="-11" as="offset" />
          </mxGeometry>
        </mxCell>
        <mxCell id="2R9k3WFj2CRMJ_DRTDR5-55" value="" style="endArrow=none;html=1;rounded=0;endFill=0;startArrow=classic;startFill=1;dashed=1;dashPattern=8 8;fontFamily=Helvetica;fontSize=14;entryX=-0.049;entryY=0.791;entryDx=0;entryDy=0;entryPerimeter=0;exitX=1.056;exitY=0.725;exitDx=0;exitDy=0;exitPerimeter=0;" edge="1" parent="1" target="2R9k3WFj2CRMJ_DRTDR5-56" source="2R9k3WFj2CRMJ_DRTDR5-79">
          <mxGeometry width="50" height="50" relative="1" as="geometry">
            <mxPoint x="570" y="378" as="sourcePoint" />
            <mxPoint x="600" y="378" as="targetPoint" />
          </mxGeometry>
        </mxCell>
        <mxCell id="2R9k3WFj2CRMJ_DRTDR5-58" value="" style="edgeStyle=orthogonalEdgeStyle;rounded=0;orthogonalLoop=1;jettySize=auto;html=1;entryX=0.5;entryY=1;entryDx=0;entryDy=0;endArrow=none;endFill=0;dashed=1;" edge="1" parent="1" source="2R9k3WFj2CRMJ_DRTDR5-56" target="2R9k3WFj2CRMJ_DRTDR5-36">
          <mxGeometry relative="1" as="geometry">
            <mxPoint x="698.5" y="377" as="targetPoint" />
          </mxGeometry>
        </mxCell>
        <mxCell id="2R9k3WFj2CRMJ_DRTDR5-56" value="" style="rounded=0;whiteSpace=wrap;html=1;fontFamily=Helvetica;fontSize=14;" vertex="1" parent="1">
          <mxGeometry x="693.5" y="362" width="10" height="20" as="geometry" />
        </mxCell>
        <mxCell id="2R9k3WFj2CRMJ_DRTDR5-62" value="" style="edgeStyle=orthogonalEdgeStyle;rounded=0;orthogonalLoop=1;jettySize=auto;html=1;startArrow=none;startFill=0;endArrow=none;endFill=0;dashed=1;" edge="1" parent="1" source="2R9k3WFj2CRMJ_DRTDR5-59" target="2R9k3WFj2CRMJ_DRTDR5-38">
          <mxGeometry relative="1" as="geometry" />
        </mxCell>
        <mxCell id="2R9k3WFj2CRMJ_DRTDR5-59" value="" style="rounded=0;whiteSpace=wrap;html=1;fontFamily=Helvetica;fontSize=14;" vertex="1" parent="1">
          <mxGeometry x="477.5" y="190" width="10" height="50" as="geometry" />
        </mxCell>
        <mxCell id="2R9k3WFj2CRMJ_DRTDR5-60" value="" style="endArrow=classic;html=1;rounded=0;entryX=1.176;entryY=0.81;entryDx=0;entryDy=0;entryPerimeter=0;fontFamily=Helvetica;fontSize=14;" edge="1" parent="1">
          <mxGeometry width="50" height="50" relative="1" as="geometry">
            <mxPoint x="487.5" y="204" as="sourcePoint" />
            <mxPoint x="489.2600000000001" y="234.49999999999994" as="targetPoint" />
            <Array as="points">
              <mxPoint x="530" y="204" />
              <mxPoint x="530" y="234" />
            </Array>
          </mxGeometry>
        </mxCell>
        <mxCell id="2R9k3WFj2CRMJ_DRTDR5-61" value="&lt;div style=&quot;font-size: 14px;&quot;&gt;k_work_submit(&amp;amp;gps_send)&lt;/div&gt;" style="edgeLabel;html=1;align=center;verticalAlign=middle;resizable=0;points=[];fontSize=14;fontFamily=Helvetica;" vertex="1" connectable="0" parent="2R9k3WFj2CRMJ_DRTDR5-60">
          <mxGeometry x="-0.0278" relative="1" as="geometry">
            <mxPoint x="60" y="2" as="offset" />
          </mxGeometry>
        </mxCell>
        <mxCell id="2R9k3WFj2CRMJ_DRTDR5-64" value="GPS Buffer" style="shadow=1;fontFamily=Helvetica;fontSize=14;fontStyle=1" vertex="1" parent="1">
          <mxGeometry x="770" y="78" width="105" height="50" as="geometry" />
        </mxCell>
        <mxCell id="2R9k3WFj2CRMJ_DRTDR5-66" value="" style="edgeStyle=orthogonalEdgeStyle;rounded=0;orthogonalLoop=1;jettySize=auto;html=1;entryX=0.5;entryY=1;entryDx=0;entryDy=0;endArrow=none;endFill=0;dashed=1;" edge="1" parent="1" target="2R9k3WFj2CRMJ_DRTDR5-64">
          <mxGeometry relative="1" as="geometry">
            <mxPoint x="822.5" y="377" as="targetPoint" />
            <mxPoint x="823" y="600" as="sourcePoint" />
            <Array as="points">
              <mxPoint x="823" y="344" />
            </Array>
          </mxGeometry>
        </mxCell>
        <mxCell id="2R9k3WFj2CRMJ_DRTDR5-68" value="" style="endArrow=classic;html=1;rounded=0;fontFamily=Helvetica;fontSize=14;exitX=1.007;exitY=0.795;exitDx=0;exitDy=0;exitPerimeter=0;" edge="1" parent="1">
          <mxGeometry width="50" height="50" relative="1" as="geometry">
            <mxPoint x="487.56999999999994" y="287.09999999999997" as="sourcePoint" />
            <mxPoint x="820" y="285" as="targetPoint" />
          </mxGeometry>
        </mxCell>
        <mxCell id="2R9k3WFj2CRMJ_DRTDR5-69" value="read data" style="edgeLabel;html=1;align=center;verticalAlign=middle;resizable=0;points=[];fontFamily=Helvetica;fontSize=14;" vertex="1" connectable="0" parent="2R9k3WFj2CRMJ_DRTDR5-68">
          <mxGeometry x="0.3884" y="-1" relative="1" as="geometry">
            <mxPoint x="-80" y="-12" as="offset" />
          </mxGeometry>
        </mxCell>
        <mxCell id="2R9k3WFj2CRMJ_DRTDR5-70" value="" style="endArrow=classic;html=1;rounded=0;fontFamily=Helvetica;fontSize=14;exitX=1.007;exitY=0.553;exitDx=0;exitDy=0;exitPerimeter=0;" edge="1" parent="1">
          <mxGeometry width="50" height="50" relative="1" as="geometry">
            <mxPoint x="487.56999999999994" y="264.9959999999999" as="sourcePoint" />
            <mxPoint x="820" y="265" as="targetPoint" />
          </mxGeometry>
        </mxCell>
        <mxCell id="2R9k3WFj2CRMJ_DRTDR5-71" value="lock mutex" style="edgeLabel;html=1;align=center;verticalAlign=middle;resizable=0;points=[];fontFamily=Helvetica;fontSize=14;" vertex="1" connectable="0" parent="2R9k3WFj2CRMJ_DRTDR5-70">
          <mxGeometry x="0.3884" y="-1" relative="1" as="geometry">
            <mxPoint x="-80" y="-12" as="offset" />
          </mxGeometry>
        </mxCell>
        <mxCell id="2R9k3WFj2CRMJ_DRTDR5-72" value="" style="endArrow=classic;html=1;rounded=0;fontFamily=Helvetica;fontSize=14;exitX=1.007;exitY=0.795;exitDx=0;exitDy=0;exitPerimeter=0;" edge="1" parent="1">
          <mxGeometry width="50" height="50" relative="1" as="geometry">
            <mxPoint x="487.4999999999999" y="309.09999999999997" as="sourcePoint" />
            <mxPoint x="820" y="309" as="targetPoint" />
          </mxGeometry>
        </mxCell>
        <mxCell id="2R9k3WFj2CRMJ_DRTDR5-73" value="unlock mutex" style="edgeLabel;html=1;align=center;verticalAlign=middle;resizable=0;points=[];fontFamily=Helvetica;fontSize=14;" vertex="1" connectable="0" parent="2R9k3WFj2CRMJ_DRTDR5-72">
          <mxGeometry x="0.3884" y="-1" relative="1" as="geometry">
            <mxPoint x="-80" y="-12" as="offset" />
          </mxGeometry>
        </mxCell>
        <mxCell id="2R9k3WFj2CRMJ_DRTDR5-77" value="" style="endArrow=classic;html=1;rounded=0;exitX=0.95;exitY=0.078;exitDx=0;exitDy=0;exitPerimeter=0;fontFamily=Helvetica;fontSize=14;entryX=1.073;entryY=0.446;entryDx=0;entryDy=0;entryPerimeter=0;" edge="1" parent="1" target="2R9k3WFj2CRMJ_DRTDR5-51">
          <mxGeometry width="50" height="50" relative="1" as="geometry">
            <mxPoint x="487.5" y="349" as="sourcePoint" />
            <mxPoint x="490" y="395" as="targetPoint" />
            <Array as="points">
              <mxPoint x="530.5" y="349" />
              <mxPoint x="530" y="395" />
            </Array>
          </mxGeometry>
        </mxCell>
        <mxCell id="2R9k3WFj2CRMJ_DRTDR5-78" value="sendLat(*data)" style="edgeLabel;html=1;align=center;verticalAlign=middle;resizable=0;points=[];fontFamily=Helvetica;fontSize=14;" vertex="1" connectable="0" parent="2R9k3WFj2CRMJ_DRTDR5-77">
          <mxGeometry x="-0.6648" y="2" relative="1" as="geometry">
            <mxPoint x="34" y="-15" as="offset" />
          </mxGeometry>
        </mxCell>
        <mxCell id="2R9k3WFj2CRMJ_DRTDR5-79" value="" style="rounded=0;whiteSpace=wrap;html=1;fontFamily=Helvetica;fontSize=14;" vertex="1" parent="1">
          <mxGeometry x="525" y="359" width="10" height="26" as="geometry" />
        </mxCell>
        <mxCell id="2R9k3WFj2CRMJ_DRTDR5-87" value="" style="endArrow=classic;html=1;rounded=0;entryX=-0.072;entryY=0.18;entryDx=0;entryDy=0;entryPerimeter=0;fontFamily=Helvetica;fontSize=14;exitX=1.084;exitY=0.238;exitDx=0;exitDy=0;exitPerimeter=0;" edge="1" parent="1" source="2R9k3WFj2CRMJ_DRTDR5-93" target="2R9k3WFj2CRMJ_DRTDR5-90">
          <mxGeometry width="50" height="50" relative="1" as="geometry">
            <mxPoint x="550" y="446" as="sourcePoint" />
            <mxPoint x="327.9399999999998" y="447.20000000000005" as="targetPoint" />
            <Array as="points" />
          </mxGeometry>
        </mxCell>
        <mxCell id="2R9k3WFj2CRMJ_DRTDR5-88" value="can_send(&amp;amp;frame)" style="edgeLabel;html=1;align=center;verticalAlign=middle;resizable=0;points=[];fontFamily=Helvetica;fontSize=14;" vertex="1" connectable="0" parent="2R9k3WFj2CRMJ_DRTDR5-87">
          <mxGeometry x="0.2875" relative="1" as="geometry">
            <mxPoint x="-27" y="-11" as="offset" />
          </mxGeometry>
        </mxCell>
        <mxCell id="2R9k3WFj2CRMJ_DRTDR5-89" value="" style="endArrow=none;html=1;rounded=0;endFill=0;startArrow=classic;startFill=1;dashed=1;dashPattern=8 8;fontFamily=Helvetica;fontSize=14;entryX=-0.049;entryY=0.791;entryDx=0;entryDy=0;entryPerimeter=0;exitX=1.056;exitY=0.725;exitDx=0;exitDy=0;exitPerimeter=0;" edge="1" parent="1" source="2R9k3WFj2CRMJ_DRTDR5-93" target="2R9k3WFj2CRMJ_DRTDR5-90">
          <mxGeometry width="50" height="50" relative="1" as="geometry">
            <mxPoint x="570" y="459" as="sourcePoint" />
            <mxPoint x="600" y="459" as="targetPoint" />
          </mxGeometry>
        </mxCell>
        <mxCell id="2R9k3WFj2CRMJ_DRTDR5-90" value="" style="rounded=0;whiteSpace=wrap;html=1;fontFamily=Helvetica;fontSize=14;" vertex="1" parent="1">
          <mxGeometry x="693.5" y="443" width="10" height="20" as="geometry" />
        </mxCell>
        <mxCell id="2R9k3WFj2CRMJ_DRTDR5-91" value="" style="endArrow=classic;html=1;rounded=0;exitX=0.95;exitY=0.078;exitDx=0;exitDy=0;exitPerimeter=0;fontFamily=Helvetica;fontSize=14;entryX=1.071;entryY=0.512;entryDx=0;entryDy=0;entryPerimeter=0;" edge="1" parent="1">
          <mxGeometry width="50" height="50" relative="1" as="geometry">
            <mxPoint x="487.5" y="430" as="sourcePoint" />
            <mxPoint x="488" y="476" as="targetPoint" />
            <Array as="points">
              <mxPoint x="530.5" y="430" />
              <mxPoint x="530" y="476" />
            </Array>
          </mxGeometry>
        </mxCell>
        <mxCell id="2R9k3WFj2CRMJ_DRTDR5-92" value="sendLong(*data)" style="edgeLabel;html=1;align=center;verticalAlign=middle;resizable=0;points=[];fontFamily=Helvetica;fontSize=14;" vertex="1" connectable="0" parent="2R9k3WFj2CRMJ_DRTDR5-91">
          <mxGeometry x="-0.6648" y="2" relative="1" as="geometry">
            <mxPoint x="41" y="-14" as="offset" />
          </mxGeometry>
        </mxCell>
        <mxCell id="2R9k3WFj2CRMJ_DRTDR5-93" value="" style="rounded=0;whiteSpace=wrap;html=1;fontFamily=Helvetica;fontSize=14;" vertex="1" parent="1">
          <mxGeometry x="525" y="440" width="10" height="26" as="geometry" />
        </mxCell>
        <mxCell id="2R9k3WFj2CRMJ_DRTDR5-111" value="" style="endArrow=classic;html=1;rounded=0;entryX=-0.072;entryY=0.18;entryDx=0;entryDy=0;entryPerimeter=0;fontFamily=Helvetica;fontSize=14;exitX=1.084;exitY=0.238;exitDx=0;exitDy=0;exitPerimeter=0;" edge="1" parent="1" source="2R9k3WFj2CRMJ_DRTDR5-117" target="2R9k3WFj2CRMJ_DRTDR5-114">
          <mxGeometry width="50" height="50" relative="1" as="geometry">
            <mxPoint x="550" y="526" as="sourcePoint" />
            <mxPoint x="327.9399999999998" y="527.2" as="targetPoint" />
            <Array as="points" />
          </mxGeometry>
        </mxCell>
        <mxCell id="2R9k3WFj2CRMJ_DRTDR5-112" value="can_send(&amp;amp;frame)" style="edgeLabel;html=1;align=center;verticalAlign=middle;resizable=0;points=[];fontFamily=Helvetica;fontSize=14;" vertex="1" connectable="0" parent="2R9k3WFj2CRMJ_DRTDR5-111">
          <mxGeometry x="0.2875" relative="1" as="geometry">
            <mxPoint x="-27" y="-11" as="offset" />
          </mxGeometry>
        </mxCell>
        <mxCell id="2R9k3WFj2CRMJ_DRTDR5-113" value="" style="endArrow=none;html=1;rounded=0;endFill=0;startArrow=classic;startFill=1;dashed=1;dashPattern=8 8;fontFamily=Helvetica;fontSize=14;entryX=-0.049;entryY=0.791;entryDx=0;entryDy=0;entryPerimeter=0;exitX=1.056;exitY=0.725;exitDx=0;exitDy=0;exitPerimeter=0;" edge="1" parent="1" source="2R9k3WFj2CRMJ_DRTDR5-117" target="2R9k3WFj2CRMJ_DRTDR5-114">
          <mxGeometry width="50" height="50" relative="1" as="geometry">
            <mxPoint x="570" y="539" as="sourcePoint" />
            <mxPoint x="600" y="539" as="targetPoint" />
          </mxGeometry>
        </mxCell>
        <mxCell id="2R9k3WFj2CRMJ_DRTDR5-114" value="" style="rounded=0;whiteSpace=wrap;html=1;fontFamily=Helvetica;fontSize=14;" vertex="1" parent="1">
          <mxGeometry x="693.5" y="523" width="10" height="20" as="geometry" />
        </mxCell>
        <mxCell id="2R9k3WFj2CRMJ_DRTDR5-115" value="" style="endArrow=classic;html=1;rounded=0;exitX=0.95;exitY=0.078;exitDx=0;exitDy=0;exitPerimeter=0;fontFamily=Helvetica;fontSize=14;entryX=1.071;entryY=0.512;entryDx=0;entryDy=0;entryPerimeter=0;" edge="1" parent="1">
          <mxGeometry width="50" height="50" relative="1" as="geometry">
            <mxPoint x="487.5" y="510" as="sourcePoint" />
            <mxPoint x="488" y="556" as="targetPoint" />
            <Array as="points">
              <mxPoint x="530.5" y="510" />
              <mxPoint x="530" y="556" />
            </Array>
          </mxGeometry>
        </mxCell>
        <mxCell id="2R9k3WFj2CRMJ_DRTDR5-116" value="sendTimeFixSpeed(*data)" style="edgeLabel;html=1;align=center;verticalAlign=middle;resizable=0;points=[];fontFamily=Helvetica;fontSize=14;" vertex="1" connectable="0" parent="2R9k3WFj2CRMJ_DRTDR5-115">
          <mxGeometry x="-0.6648" y="2" relative="1" as="geometry">
            <mxPoint x="71" y="-14" as="offset" />
          </mxGeometry>
        </mxCell>
        <mxCell id="2R9k3WFj2CRMJ_DRTDR5-117" value="" style="rounded=0;whiteSpace=wrap;html=1;fontFamily=Helvetica;fontSize=14;" vertex="1" parent="1">
          <mxGeometry x="525" y="520" width="10" height="26" as="geometry" />
        </mxCell>
      </root>
    </mxGraphModel>
  </diagram>
</mxfile>
